<svg version="1.2" xmlns="http://www.w3.org/2000/svg" viewBox="0 0 76 67" width="76" height="67"><defs><clipPath clipPathUnits="userSpaceOnUse" id="cp1"><path d="m-668-2648h1150v5750h-1150z"/></clipPath></defs><style>.a{fill:#263469}</style><g clip-path="url(#cp1)"><path fill-rule="evenodd" class="a" d="m64.1 66h-51.6c-0.6 0-1-0.3-1.2-0.8l-10.4-31c-0.1-0.4-0.1-0.8 0.2-1.1 0.2-0.3 0.6-0.5 1-0.5h72.4c0.4 0 0.8 0.2 1 0.5 0.3 0.3 0.3 0.7 0.2 1.1l-10.4 31c-0.2 0.5-0.7 0.8-1.2 0.8zm-50.7-2.5h49.8l9.6-28.4h-69z"/><path fill-rule="evenodd" class="a" d="m74.5 66h-72.4c-0.7 0-1.3-0.5-1.3-1.2 0-0.7 0.6-1.3 1.3-1.3h72.4c0.7 0 1.3 0.6 1.3 1.3 0 0.7-0.6 1.2-1.3 1.2z"/><path fill-rule="evenodd" class="a" d="m74.5 35.1h-72.4c-0.7 0-1.3-0.6-1.3-1.3v-6.8c0-1.9 1.6-3.4 3.4-3.4h68.2c1.8 0 3.4 1.5 3.4 3.4v6.8c0 0.7-0.6 1.3-1.3 1.3zm-71.2-2.5h70v-5.6c0-0.5-0.4-0.9-0.9-0.9h-68.2c-0.5 0-0.9 0.4-0.9 0.9z"/><path fill-rule="evenodd" class="a" d="m15.9 26.1q-0.3 0-0.6-0.2c-7.6-3.8-3.4-14.8-3.2-15.3 0.2-0.4 0.6-0.7 1.1-0.8 0.4 0 9.8-0.3 18.3 9.7 0.5 0.5 0.4 1.3-0.1 1.7-0.5 0.5-1.3 0.4-1.8-0.1-6.3-7.4-13.1-8.6-15.5-8.7-0.7 2.3-2.2 9 2.4 11.3 0.6 0.3 0.8 1.1 0.5 1.7-0.2 0.4-0.6 0.7-1.1 0.7z"/><path fill-rule="evenodd" class="a" d="m32.2 13.2q-0.1 0-0.2 0c-0.7-0.1-1.2-0.7-1-1.4 0-0.3 1.3-8.1 7.6-10.9 0.7-0.3 1.4 0 1.7 0.6 0.1 0.2 1.9 4.2 2.6 8.7 0.1 0.7-0.4 1.3-1 1.4-0.7 0.1-1.4-0.3-1.5-1-0.4-2.7-1.3-5.3-1.9-6.8-4.1 2.7-5.1 8.3-5.1 8.4-0.1 0.6-0.6 1-1.2 1z"/><path fill-rule="evenodd" class="a" d="m68.8 26.1h-11.2c-0.3 0-0.7-0.2-0.9-0.4-0.3-0.3-0.4-0.7-0.3-1q0-0.5 0-1c0-2.7-1.2-5.2-3.4-6.8-0.5-0.4-0.7-1.2-0.3-1.7 1.9-2.8 5-4.5 8.3-4.5 5.6 0 10 4.5 10 10.1q0 2.4-1.1 4.6c-0.2 0.4-0.6 0.7-1.1 0.7zm-9.9-2.5h9.1q0.5-1.4 0.6-2.8c0-4.2-3.4-7.6-7.6-7.6-2.1 0-4.1 0.9-5.5 2.5 2.2 2 3.4 4.9 3.4 7.9z"/><path fill-rule="evenodd" class="a" d="m57.6 26.1h-19.5c-0.6 0-1.2-0.5-1.2-1.1q-0.1-0.7-0.1-1.3c0-6.1 5-11.1 11.1-11.1 6.1 0 11 5 11 11.1q0 0.6 0 1.3c-0.1 0.6-0.7 1.1-1.3 1.1zm-18.3-2.5h17.1c0-4.7-3.9-8.5-8.5-8.5-4.7 0-8.5 3.8-8.6 8.5z"/><path fill-rule="evenodd" class="a" d="m38.1 26.1h-8.4c-0.6 0-1.2-0.4-1.3-1q-0.1-0.7-0.1-1.4c0-4 3.3-7.3 7.3-7.3 1.6 0 3.1 0.5 4.5 1.5 0.4 0.4 0.6 1.1 0.3 1.6-0.7 1.3-1.1 2.7-1.1 4.2q0 0.5 0.1 1c0 0.3-0.1 0.7-0.4 1-0.2 0.2-0.5 0.4-0.9 0.4zm-7.3-2.5h6c0-1.5 0.3-2.9 0.9-4.2q-1-0.5-2.1-0.5c-2.6 0-4.7 2.1-4.8 4.7z"/><path fill-rule="evenodd" class="a" d="m66 59.1h-55.8c-0.7 0-1.3-0.6-1.3-1.3 0-0.7 0.6-1.2 1.3-1.2h55.8c0.7 0 1.2 0.5 1.2 1.2 0 0.7-0.5 1.3-1.2 1.3z"/></g></svg>