<svg version="1.2" xmlns="http://www.w3.org/2000/svg" viewBox="0 0 121 63" width="121" height="63"><defs><clipPath clipPathUnits="userSpaceOnUse" id="cp1"><path d="m-917-2650h1150v5750h-1150z"/></clipPath></defs><style>.a{fill:#263469}</style><g clip-path="url(#cp1)"><path fill-rule="evenodd" class="a" d="m85.2 55.2h-50.1c-1 0-1.8-0.8-1.8-1.8 0-3.3 1.1-6.4 3.1-8.9 2.6-3.4 3.9-7.2 3.9-11.2v-8.1c0-8.1 5-15.3 12.4-18.3 0.3-3.8 3.5-6.8 7.4-6.8 3.9 0 7.1 3 7.4 6.8 7.5 3 12.4 10.2 12.4 18.3v8.1c0 4 1.4 7.8 4 11.2 2 2.5 3 5.6 3 8.9 0 1-0.8 1.8-1.7 1.8zm-48.2-3.5h46.3c-0.3-1.9-1.1-3.6-2.2-5.1-3.1-3.9-4.8-8.6-4.8-13.3v-8.1c0-7-4.4-13.2-11.1-15.4-0.8-0.3-1.3-1.1-1.2-1.9q0-0.2 0-0.4c0-2.2-1.8-3.9-3.9-3.9-2.1 0-3.9 1.7-3.9 3.9q0 0.2 0.1 0.4c0.1 0.8-0.4 1.6-1.2 1.9-6.7 2.2-11.2 8.4-11.2 15.4v8.1c0 4.7-1.7 9.4-4.7 13.3-1.2 1.5-1.9 3.2-2.2 5.1z"/><path fill-rule="evenodd" class="a" d="m60.1 62.8c-5.1 0-9.3-4.2-9.3-9.4 0-0.9 0.8-1.7 1.7-1.7h15.2c1 0 1.8 0.8 1.8 1.7 0 5.2-4.2 9.4-9.4 9.4zm-5.5-7.6c0.7 2.3 2.9 4 5.5 4 2.6 0 4.8-1.7 5.6-4z"/><path fill-rule="evenodd" class="a" d="m108.5 56.9c-0.5 0-0.9-0.2-1.3-0.6-0.7-0.6-0.7-1.8 0-2.5 2.9-2.9 5.2-6.3 6.8-10 1.7-4 2.5-8.1 2.5-12.4 0-4.2-0.8-8.4-2.5-12.3-1.6-3.8-3.9-7.2-6.8-10.1-0.7-0.7-0.7-1.8 0-2.5 0.7-0.7 1.8-0.7 2.5 0 3.2 3.2 5.8 7 7.6 11.2 1.8 4.4 2.7 9 2.7 13.7 0 4.8-0.9 9.4-2.7 13.8-1.8 4.2-4.4 7.9-7.6 11.1-0.3 0.4-0.8 0.6-1.2 0.6z"/><path fill-rule="evenodd" class="a" d="m101.4 49.8c-0.4 0-0.9-0.1-1.2-0.5-0.7-0.7-0.7-1.8 0-2.5 2-2 3.6-4.3 4.7-6.9 1.1-2.7 1.7-5.5 1.7-8.5 0-2.9-0.6-5.8-1.7-8.5-1.1-2.6-2.7-4.9-4.7-6.9-0.7-0.7-0.7-1.8 0-2.5 0.7-0.7 1.8-0.7 2.5 0 2.3 2.3 4.1 5 5.4 8.1 1.3 3.1 2 6.4 2 9.8 0 3.4-0.7 6.8-2 9.9-1.3 3-3.1 5.7-5.4 8-0.3 0.4-0.8 0.5-1.3 0.5z"/><path fill-rule="evenodd" class="a" d="m94.4 42.8c-0.4 0-0.9-0.1-1.2-0.5-0.7-0.7-0.7-1.8 0-2.5q1.6-1.6 2.5-3.8 1-2.2 1-4.6 0-2.4-1-4.6-0.9-2.1-2.5-3.8c-0.7-0.7-0.7-1.8 0-2.5 0.7-0.7 1.8-0.7 2.5 0q2.1 2.2 3.3 4.9 1.2 2.9 1.2 6 0 3.2-1.2 6-1.2 2.8-3.3 4.9c-0.4 0.4-0.8 0.5-1.3 0.5z"/><path fill-rule="evenodd" class="a" d="m11.8 56.9c-0.5 0-0.9-0.2-1.3-0.6-3.2-3.2-5.8-6.9-7.5-11.1-1.9-4.4-2.8-9-2.8-13.8 0-4.7 0.9-9.3 2.8-13.7 1.7-4.2 4.3-8 7.5-11.2 0.7-0.7 1.8-0.7 2.5 0 0.7 0.7 0.7 1.8 0 2.5-2.9 2.9-5.2 6.3-6.8 10.1-1.6 3.9-2.5 8.1-2.5 12.3 0 4.3 0.9 8.4 2.5 12.4 1.6 3.7 3.9 7.1 6.8 10 0.7 0.7 0.7 1.9 0 2.5-0.3 0.4-0.8 0.6-1.2 0.6z"/><path fill-rule="evenodd" class="a" d="m18.8 49.8c-0.5 0-0.9-0.1-1.3-0.5-2.3-2.3-4.1-5-5.4-8-1.3-3.1-2-6.5-2-9.9 0-3.4 0.7-6.7 2-9.8 1.3-3.1 3.1-5.8 5.4-8.1 0.7-0.7 1.8-0.7 2.5 0 0.7 0.7 0.7 1.8 0 2.5-2 2-3.5 4.3-4.6 6.9-1.2 2.7-1.7 5.6-1.7 8.5 0 3 0.5 5.8 1.7 8.5 1.1 2.6 2.6 4.9 4.6 6.9 0.7 0.7 0.7 1.8 0 2.5-0.3 0.4-0.8 0.5-1.2 0.5z"/><path fill-rule="evenodd" class="a" d="m25.8 42.8c-0.5 0-0.9-0.1-1.3-0.5q-2.1-2.1-3.3-4.9-1.2-2.8-1.2-6 0-3.1 1.2-6 1.2-2.7 3.3-4.9c0.7-0.7 1.9-0.7 2.6 0 0.6 0.7 0.6 1.8 0 2.5q-1.7 1.7-2.6 3.8-0.9 2.2-0.9 4.6 0 2.4 0.9 4.6 0.9 2.2 2.6 3.8c0.6 0.7 0.6 1.8 0 2.5-0.4 0.4-0.8 0.5-1.3 0.5z"/></g></svg>