<svg version="1.2" xmlns="http://www.w3.org/2000/svg" viewBox="0 0 69 105" width="69" height="105"><defs><clipPath clipPathUnits="userSpaceOnUse" id="cp1"><path d="m-147-2629h1150v5750h-1150z"/></clipPath></defs><style>.a{fill:#263469}</style><g clip-path="url(#cp1)"><path fill-rule="evenodd" class="a" d="m55.9 96.6h-43.1c-3.9 0-7-3.2-7-7v-82.3c0-3.9 3.1-7 7-7h43.1c3.9 0 7 3.1 7 7v82.3c0 3.8-3.1 7-7 7zm-43.1-93c-2.1 0-3.7 1.7-3.7 3.7v82.3c0 2 1.6 3.6 3.7 3.6h43.1c2.1 0 3.7-1.6 3.7-3.6v-82.3c0-2-1.6-3.7-3.7-3.7z"/><path fill-rule="evenodd" class="a" d="m66.9 104.6h-65.1c-0.9 0-1.7-0.8-1.7-1.7 0-0.9 0.8-1.7 1.7-1.7h65.1c0.9 0 1.6 0.8 1.6 1.7 0 0.9-0.7 1.7-1.6 1.7z"/><path fill-rule="evenodd" class="a" d="m25.2 104.6h-11.1c-0.9 0-1.7-0.8-1.7-1.7v-8c0-0.9 0.8-1.7 1.7-1.7h11.1c0.9 0 1.6 0.8 1.6 1.7v8c0 0.9-0.7 1.7-1.6 1.7zm-9.4-3.4h7.7v-4.6h-7.7z"/><path fill-rule="evenodd" class="a" d="m54.6 104.6h-11.1c-0.9 0-1.6-0.8-1.6-1.7v-8c0-0.9 0.7-1.7 1.6-1.7h11.1c0.9 0 1.7 0.8 1.7 1.7v8c0 0.9-0.8 1.7-1.7 1.7zm-9.4-3.4h7.7v-4.6h-7.7z"/><path fill-rule="evenodd" class="a" d="m46.6 44.8h-24.5c-2.9 0-5.3-2.4-5.3-5.3v-24.5c0-2.9 2.4-5.3 5.3-5.3h24.5c2.9 0 5.3 2.4 5.3 5.3v24.5c0 2.9-2.4 5.3-5.3 5.3zm-24.5-31.8c-1.1 0-2 0.9-2 2v24.5c0 1.1 0.9 2 2 2h24.5c1.1 0 2-0.9 2-2v-24.5c0-1.1-0.9-2-2-2z"/><path fill-rule="evenodd" class="a" d="m50.2 30.4h-18.5c-0.9 0-1.7-0.8-1.7-1.7v-8.2h-11.5c-1 0-1.7-0.7-1.7-1.7 0-0.9 0.7-1.6 1.7-1.6h13.2c0.9 0 1.7 0.7 1.7 1.6v8.2h16.8c1 0 1.7 0.8 1.7 1.7 0 0.9-0.7 1.7-1.7 1.7z"/><path fill-rule="evenodd" class="a" d="m40.3 35.1c-0.9 0-1.7-0.8-1.7-1.7v-4.7c0-0.9 0.8-1.7 1.7-1.7 0.9 0 1.6 0.8 1.6 1.7v4.7c0 0.9-0.7 1.7-1.6 1.7z"/><path fill-rule="evenodd" class="a" d="m15.7 62.5c-0.9 0-1.7-0.8-1.7-1.7v-11.5c0-1 0.8-1.7 1.7-1.7 0.9 0 1.7 0.7 1.7 1.7v11.5c0 0.9-0.8 1.7-1.7 1.7z"/><path fill-rule="evenodd" class="a" d="m31.7 39.3c-0.9 0-1.7-0.7-1.7-1.7v-8.9c0-0.9 0.8-1.7 1.7-1.7 0.9 0 1.7 0.8 1.7 1.7v8.9c0 1-0.8 1.7-1.7 1.7z"/></g></svg>