<svg version="1.2" xmlns="http://www.w3.org/2000/svg" viewBox="0 0 83 65" width="83" height="65"><defs><clipPath clipPathUnits="userSpaceOnUse" id="cp1"><path d="m-407-2649h1150v5750h-1150z"/></clipPath></defs><style>.a{fill:#263469}</style><g clip-path="url(#cp1)"><circle class="a" cx="37" cy="13.8" r="2.3"/><circle class="a" cx="29" cy="10.3" r="2.3"/><circle class="a" cx="20.2" cy="9.6" r="2.3"/><circle class="a" cx="11.5" cy="11.1" r="2.3"/><circle class="a" cx="3.2" cy="14.1" r="2.3"/><circle class="a" cx="37" cy="29.2" r="2.3"/><circle class="a" cx="29" cy="25.8" r="2.3"/><circle class="a" cx="20.2" cy="25.1" r="2.3"/><circle class="a" cx="11.5" cy="26.5" r="2.3"/><circle class="a" cx="3.2" cy="29.5" r="2.3"/><path fill-rule="evenodd" class="a" d="m81.6 40.4c-0.2 0.2-4.6 5.3-11.7 8.9-4.5 2.2-9.1 3.4-13.6 3.4-3.9 0-7.7-0.9-11.5-2.5v11.9c0 1.3-0.9 2.3-2.2 2.3-1.2 0-2.1-1-2.1-2.3v-59.4c0-1.2 0.9-2.2 2.1-2.2 1.3 0 2.2 1 2.2 2.2v11.6c7.6 4 15.1 4.1 22.9 0.2 6.4-3.2 10.5-7.8 10.5-7.9 0.8-0.9 2.2-1 3.2-0.2 0.9 0.8 1 2.2 0.2 3.2-0.2 0.2-4.6 5.3-11.7 8.8-4.5 2.3-9.1 3.4-13.6 3.4-3.9 0-7.7-0.8-11.5-2.5v10.4c7.6 4 15.2 4.1 23.1 0.1 6.3-3.1 10.3-7.7 10.3-7.8 0.8-0.9 2.2-1 3.2-0.2 0.9 0.8 1 2.2 0.2 3.2-0.2 0.2-4.6 5.3-11.7 8.9-4.5 2.2-9.1 3.4-13.6 3.4-3.9 0-7.7-0.9-11.5-2.5v10.3c7.6 4 15.1 4.1 22.9 0.2 6.4-3.1 10.5-7.8 10.5-7.8 0.8-1 2.2-1.1 3.2-0.3 0.9 0.8 1 2.3 0.2 3.2z"/><circle class="a" cx="37" cy="44.7" r="2.3"/><circle class="a" cx="29" cy="41.2" r="2.3"/><circle class="a" cx="20.2" cy="40.5" r="2.3"/><circle class="a" cx="11.5" cy="41.9" r="2.3"/><circle class="a" cx="3.2" cy="45" r="2.3"/></g></svg>