<svg version="1.2" xmlns="http://www.w3.org/2000/svg" viewBox="0 0 78 83" width="78" height="83"><defs><clipPath clipPathUnits="userSpaceOnUse" id="cp1"><path d="m-401-3577h1150v6301h-1150z"/></clipPath></defs><style>.a{fill:#263469}</style><g clip-path="url(#cp1)"><path fill-rule="evenodd" class="a" d="m56.4 5.7l16.7-5.1q2.4 0 4.9 0v81.5q-2.5 0-4.9 0l-16.7-5v3.1h-2.7v2.2h-50.9v-2.2h-2.7v-79.6q28.1 0 56.3 0zm-35.3 24.7v3.9h14.3v-3.9q7 0 13.9 0v20.2h-42.1v-20.2q6.9 0 13.9 0zm-10.8 3.1v14.1h35.9v-14.1h-7.7v3.9q-10.3 0-20.5 0v-3.9zm10.7 19.3v3.9h14.4v-3.9q7 0 13.9 0v20.2h-42.1v-20.2q6.9 0 13.8 0zm-10.7 3.1v14.1h35.9v-14.1h-7.7v3.9q-10.3 0-20.5 0v-3.9zm10.7-47.9v3.9h14.4v-3.9q7 0 13.9 0v20.2h-42.1v-20.2q6.9 0 13.8 0zm-10.7 3.1v14.1h35.9v-14.1h-7.7v3.9q-10.3 0-20.5 0v-3.9zm48.3-0.9v62.5l14.4 4.3v-71.1zm-7.1-4.6h-46.4v69.7h46.4z"/></g></svg>