<svg version="1.2" xmlns="http://www.w3.org/2000/svg" viewBox="0 0 69 65" width="69" height="65"><defs><clipPath clipPathUnits="userSpaceOnUse" id="cp1"><path d="m-681-3586h1150v6301h-1150z"/></clipPath></defs><style>.a{fill:#263469}</style><g clip-path="url(#cp1)"><path fill-rule="evenodd" class="a" d="m65.5 22.8h-61.5c-1.7 0-3-1.4-3-3.1v-2.5c0-1.7 1.3-3 3-3h61.5c1.7 0 3 1.3 3 3v2.5c0 1.7-1.3 3.1-3 3.1zm-61.5-6.4c-0.4 0-0.7 0.4-0.7 0.8v2.5c0 0.4 0.3 0.8 0.7 0.8h61.5c0.4 0 0.7-0.4 0.7-0.8v-2.5c0-0.4-0.3-0.8-0.7-0.8z"/><path fill-rule="evenodd" class="a" d="m65.5 43.5h-61.5c-1.7 0-3-1.4-3-3.1v-2.5c0-1.7 1.3-3 3-3h61.5c1.7 0 3 1.3 3 3v2.5c0 1.7-1.3 3.1-3 3.1zm-61.5-6.4c-0.4 0-0.7 0.4-0.7 0.8v2.5c0 0.4 0.3 0.8 0.7 0.8h61.5c0.4 0 0.7-0.4 0.7-0.8v-2.5c0-0.4-0.3-0.8-0.7-0.8z"/><path fill-rule="evenodd" class="a" d="m65.5 64.2h-61.5c-1.7 0-3-1.4-3-3.1v-2.5c0-1.7 1.3-3 3-3h61.5c1.7 0 3 1.3 3 3v2.5c0 1.7-1.3 3.1-3 3.1zm-61.5-6.4c-0.4 0-0.7 0.4-0.7 0.8v2.5c0 0.4 0.3 0.8 0.7 0.8h61.5c0.4 0 0.7-0.4 0.7-0.8v-2.5c0-0.4-0.3-0.8-0.7-0.8z"/><path fill-rule="evenodd" class="a" d="m32.7 16.4h-20.8c-2.1 0-3.8-1.7-3.8-3.8v-7.9c0-2.1 1.7-3.8 3.8-3.8h20.8c2.5 0 4.8 0.7 6.8 2l2.8 1.8c0.3 0.3 0.5 0.6 0.5 1v5.9c0 0.4-0.2 0.8-0.5 1l-2.8 1.8c-2 1.3-4.3 2-6.8 2zm-20.8-13.2c-0.8 0-1.5 0.7-1.5 1.5v7.9c0 0.9 0.7 1.6 1.5 1.6h20.8c2 0 3.9-0.6 5.6-1.7l2.2-1.5v-4.7l-2.2-1.5c-1.7-1.1-3.6-1.6-5.6-1.6z"/><path fill-rule="evenodd" class="a" d="m52 12.8h-10.3c-0.6 0-1.2-0.5-1.2-1.2v-5.9c0-0.6 0.6-1.1 1.2-1.1h10.3c0.6 0 1.2 0.5 1.2 1.1v5.9c0 0.7-0.6 1.2-1.2 1.2zm-9.2-2.3h8.1v-3.6h-8.1z"/><path fill-rule="evenodd" class="a" d="m55.4 14.4h-2.5c-1.1 0-2-0.9-2-2v-7.4c0-1.2 0.9-2.1 2-2.1h2.5c1.1 0 2.1 0.9 2.1 2.1v7.4c0 1.1-1 2-2.1 2zm-2.2-2.3h2v-6.9h-2z"/><path fill-rule="evenodd" class="a" d="m15.6 37.1c-2.9 0-5.2-2.5-5.2-5.7 0-2.9 2-7 5.2-7 3.1 0 5.2 4.1 5.2 7 0 3.2-2.4 5.7-5.2 5.7zm0-10.5c-1.3 0-2.9 2.6-2.9 4.8 0 1.9 1.3 3.5 2.9 3.5 1.6 0 2.9-1.6 2.9-3.5 0-2.2-1.6-4.8-2.9-4.8z"/><path fill-rule="evenodd" class="a" d="m28.2 37.1c-2.9 0-5.2-2.5-5.2-5.7 0-2.9 2-7 5.2-7 3.1 0 5.2 4.1 5.2 7 0 3.2-2.4 5.7-5.2 5.7zm0-10.5c-1.3 0-2.9 2.6-2.9 4.8 0 1.9 1.3 3.5 2.9 3.5 1.6 0 2.9-1.6 2.9-3.5 0-2.2-1.6-4.8-2.9-4.8z"/><path fill-rule="evenodd" class="a" d="m40.8 37.1c-2.9 0-5.2-2.5-5.2-5.7 0-2.9 2-7 5.2-7 3.1 0 5.2 4.1 5.2 7 0 3.2-2.4 5.7-5.2 5.7zm0-10.5c-1.3 0-2.9 2.6-2.9 4.8 0 1.9 1.3 3.5 2.9 3.5 1.6 0 2.9-1.6 2.9-3.5 0-2.2-1.6-4.8-2.9-4.8z"/><path fill-rule="evenodd" class="a" d="m59.8 57.8h-19c-0.7 0-1.2-0.5-1.2-1.1v-8.8c0-0.6 0.5-1.1 1.2-1.1h19c0.6 0 1.1 0.5 1.1 1.1v8.8c0 0.6-0.5 1.1-1.1 1.1zm-17.9-2.2h16.7v-6.5h-16.7z"/><path fill-rule="evenodd" class="a" d="m31.4 57.8h-19.8c-0.7 0-1.2-0.5-1.2-1.1v-4.3c0-1.7 1.4-3.1 3.1-3.1h16c1.7 0 3 1.4 3 3.1v4.3c0 0.6-0.5 1.1-1.1 1.1zm-18.7-2.2h17.6v-3.2c0-0.4-0.4-0.8-0.8-0.8h-16c-0.4 0-0.8 0.4-0.8 0.8z"/><path fill-rule="evenodd" class="a" d="m65.5 37.1c-0.7 0-1.2-0.5-1.2-1.1v-6c0-0.7 0.5-1.2 1.2-1.2 0.6 0 1.1 0.5 1.1 1.2v6c0 0.6-0.5 1.1-1.1 1.1z"/><path fill-rule="evenodd" class="a" d="m4 37.1c-0.6 0-1.1-0.5-1.1-1.1v-6c0-0.7 0.5-1.2 1.1-1.2 0.7 0 1.2 0.5 1.2 1.2v6c0 0.6-0.5 1.1-1.2 1.1z"/><path fill-rule="evenodd" class="a" d="m65.5 57.8c-0.7 0-1.2-0.5-1.2-1.1v-5.5c0-0.6 0.5-1.1 1.2-1.1 0.6 0 1.1 0.5 1.1 1.1v5.5c0 0.6-0.5 1.1-1.1 1.1z"/><path fill-rule="evenodd" class="a" d="m4 57.8c-0.6 0-1.1-0.5-1.1-1.1v-5.5c0-0.6 0.5-1.1 1.1-1.1 0.7 0 1.2 0.5 1.2 1.1v5.5c0 0.6-0.5 1.1-1.2 1.1z"/></g></svg>