<svg version="1.2" xmlns="http://www.w3.org/2000/svg" viewBox="0 0 80 66" width="80" height="66"><defs><clipPath clipPathUnits="userSpaceOnUse" id="cp1"><path d="m-943-3595h1150v6301h-1150z"/></clipPath></defs><style>.a{fill:#263469}</style><g clip-path="url(#cp1)"><path fill-rule="evenodd" class="a" d="m25.7 41.1c-1 1-2.7 1-3.7 0-1.1-1.1-1.1-2.7 0-3.8 9.8-9.8 25.7-9.8 35.5 0 1.1 1.1 1.1 2.7 0 3.8-1 1-2.7 1-3.7 0-7.7-7.8-20.3-7.8-28.1 0z"/><path fill-rule="evenodd" class="a" d="m39.8 45c5.6 0 10.1 4.5 10.1 10.1 0 5.6-4.5 10.1-10.1 10.1-5.6 0-10.2-4.5-10.2-10.1 0-5.6 4.6-10.1 10.2-10.1zm0 5.3c-2.7 0-4.9 2.1-4.9 4.8 0 2.7 2.2 4.8 4.9 4.8 2.6 0 4.8-2.1 4.8-4.8 0-2.7-2.2-4.8-4.8-4.8z"/><path fill-rule="evenodd" class="a" d="m15.1 30.5c-1 1-2.7 1-3.7 0-1.1-1.1-1.1-2.7 0-3.8 15.6-15.6 41.1-15.6 56.8 0 1 1.1 1 2.7 0 3.8-1.1 1-2.8 1-3.8 0-13.6-13.6-35.7-13.6-49.3 0z"/><path fill-rule="evenodd" class="a" d="m4.5 19.9c-1 1-2.7 1-3.7 0-1.1-1-1.1-2.7 0-3.8 21.5-21.5 56.4-21.5 78 0 1 1.1 1 2.8 0 3.8-1.1 1-2.8 1-3.8 0-19.4-19.4-51-19.4-70.5 0z"/></g></svg>