<svg version="1.2" xmlns="http://www.w3.org/2000/svg" viewBox="0 0 62 89" width="62" height="89"><defs><clipPath clipPathUnits="userSpaceOnUse" id="cp1"><path d="m-139-3574h1150v6301h-1150z"/></clipPath></defs><style>.a{fill:#263469;stroke:#263469;stroke-width:.9}</style><g clip-path="url(#cp1)"><path fill-rule="evenodd" class="a" d="m17.4 87.9c-8.5 0-15.5-7-15.5-15.5 0-5.3 2.7-10.2 7.1-13v-44.6c0-4.7 3.8-8.4 8.4-8.4 4.7 0 8.4 3.7 8.4 8.4v44.6c4.4 2.8 7.1 7.7 7.1 13 0 8.5-6.9 15.5-15.5 15.5zm0-79.4c-3.4 0-6.3 2.8-6.3 6.3v45.2c0 0.3-0.2 0.7-0.5 0.9-4 2.4-6.6 6.8-6.6 11.5 0 7.4 6 13.4 13.4 13.4 7.4 0 13.4-6 13.4-13.4 0-4.7-2.5-9.1-6.6-11.5-0.3-0.2-0.5-0.6-0.5-0.9v-45.2c0-3.5-2.8-6.3-6.3-6.3z"/><path fill-rule="evenodd" class="a" d="m17.4 72.2c-0.6 0-1.1-0.5-1.1-1.1v-52.9c0-0.6 0.5-1.1 1.1-1.1 0.6 0 1.1 0.5 1.1 1.1v52.9c0 0.6-0.5 1.1-1.1 1.1z"/><path fill-rule="evenodd" class="a" d="m20.3 32.7h-5.8c-0.6 0-1.1-0.5-1.1-1.1 0-0.6 0.5-1.1 1.1-1.1h5.8c0.6 0 1.1 0.5 1.1 1.1 0 0.6-0.5 1.1-1.1 1.1z"/><path fill-rule="evenodd" class="a" d="m20.3 40.3h-5.8c-0.6 0-1.1-0.5-1.1-1.1 0-0.6 0.5-1.1 1.1-1.1h5.8c0.6 0 1.1 0.5 1.1 1.1 0 0.6-0.5 1.1-1.1 1.1z"/><path fill-rule="evenodd" class="a" d="m20.3 47.9h-5.8c-0.6 0-1.1-0.5-1.1-1.1 0-0.6 0.5-1.1 1.1-1.1h5.8c0.6 0 1.1 0.5 1.1 1.1 0 0.6-0.5 1.1-1.1 1.1z"/><path fill-rule="evenodd" class="a" d="m20.3 55.5h-5.8c-0.6 0-1.1-0.5-1.1-1.1 0-0.6 0.5-1 1.1-1h5.8c0.6 0 1.1 0.4 1.1 1 0 0.6-0.5 1.1-1.1 1.1z"/><path fill-rule="evenodd" class="a" d="m44.7 35.8c-0.6 0-1-0.5-1-1.1v-32.5c0-0.6 0.4-1.1 1-1.1 0.6 0 1.1 0.5 1.1 1.1v32.5c0 0.6-0.5 1.1-1.1 1.1z"/><path fill-rule="evenodd" class="a" d="m58.9 27.6q-0.3 0-0.6-0.1l-28.1-16.3c-0.5-0.3-0.7-0.9-0.4-1.4 0.3-0.6 1-0.7 1.5-0.4l28.1 16.2c0.5 0.3 0.7 1 0.4 1.5-0.2 0.3-0.5 0.5-0.9 0.5z"/><path fill-rule="evenodd" class="a" d="m30.7 27.5c-0.3 0-0.7-0.2-0.9-0.5-0.3-0.5-0.1-1.2 0.4-1.5l28.1-16.2c0.6-0.3 1.2-0.1 1.5 0.4 0.3 0.5 0.1 1.1-0.4 1.4l-28.1 16.3q-0.3 0.1-0.6 0.1z"/><path fill-rule="evenodd" class="a" d="m44.7 9.1c-0.3 0-0.6-0.1-0.8-0.4l-3.5-4.1c-0.4-0.5-0.3-1.2 0.1-1.5 0.5-0.4 1.2-0.4 1.6 0.1l3.5 4.1c0.3 0.5 0.3 1.2-0.2 1.6q-0.3 0.2-0.7 0.2z"/><path fill-rule="evenodd" class="a" d="m44.7 9.1q-0.3 0-0.7-0.2c-0.4-0.4-0.5-1.1-0.1-1.6l3.5-4.1c0.4-0.5 1.1-0.5 1.5-0.1 0.5 0.3 0.5 1 0.2 1.5l-3.5 4.1c-0.3 0.3-0.6 0.4-0.9 0.4z"/><path fill-rule="evenodd" class="a" d="m30.4 15.2c-0.5 0-0.9-0.3-1-0.9-0.1-0.5 0.3-1.1 0.8-1.2l5.4-1c0.6-0.1 1.1 0.3 1.2 0.9 0.1 0.6-0.2 1.2-0.8 1.3l-5.4 0.9q-0.1 0-0.2 0z"/><path fill-rule="evenodd" class="a" d="m35.8 14.3c-0.5 0-0.9-0.3-1-0.7l-1.9-5.1c-0.2-0.6 0.1-1.2 0.7-1.4 0.5-0.2 1.1 0.1 1.3 0.6l1.9 5.1c0.2 0.6-0.1 1.2-0.6 1.4q-0.2 0.1-0.4 0.1z"/><path fill-rule="evenodd" class="a" d="m33.9 29.7q-0.1 0-0.3 0c-0.6-0.2-0.9-0.9-0.7-1.4l1.9-5.1c0.2-0.6 0.8-0.9 1.4-0.7 0.5 0.2 0.8 0.8 0.6 1.4l-1.9 5.1c-0.1 0.4-0.5 0.7-1 0.7z"/><path fill-rule="evenodd" class="a" d="m35.8 24.6q-0.1 0-0.2 0l-5.4-1c-0.5-0.1-0.9-0.6-0.8-1.2 0.1-0.6 0.6-1 1.2-0.9l5.4 1c0.6 0.1 0.9 0.6 0.8 1.2 0 0.5-0.5 0.9-1 0.9z"/><path fill-rule="evenodd" class="a" d="m48.2 33.9c-0.3 0-0.6-0.1-0.8-0.4l-3.5-4.1c-0.4-0.5-0.3-1.1 0.1-1.5 0.5-0.4 1.2-0.3 1.6 0.1l3.5 4.2c0.3 0.4 0.3 1.1-0.2 1.5q-0.3 0.2-0.7 0.2z"/><path fill-rule="evenodd" class="a" d="m41.2 33.9q-0.3 0-0.7-0.2c-0.4-0.4-0.5-1.1-0.1-1.5l3.5-4.2c0.4-0.4 1.1-0.5 1.5-0.1 0.5 0.4 0.5 1 0.2 1.5l-3.5 4.1c-0.3 0.3-0.6 0.4-0.9 0.4z"/><path fill-rule="evenodd" class="a" d="m53.7 24.6c-0.5 0-1-0.4-1.1-0.9-0.1-0.6 0.3-1.1 0.9-1.2l5.3-1c0.6-0.1 1.2 0.3 1.3 0.9 0.1 0.6-0.3 1.1-0.9 1.2l-5.3 1q-0.1 0-0.2 0z"/><path fill-rule="evenodd" class="a" d="m55.5 29.7c-0.4 0-0.8-0.3-1-0.7l-1.8-5.1c-0.2-0.6 0.1-1.2 0.6-1.4 0.6-0.2 1.2 0.1 1.4 0.7l1.8 5.1c0.2 0.5 0 1.2-0.6 1.4q-0.2 0-0.4 0z"/><path fill-rule="evenodd" class="a" d="m53.7 14.3q-0.2 0-0.4-0.1c-0.5-0.2-0.8-0.8-0.6-1.4l1.8-5.1c0.2-0.5 0.8-0.8 1.4-0.6 0.6 0.2 0.8 0.8 0.6 1.4l-1.8 5.1c-0.2 0.4-0.6 0.7-1 0.7z"/><path fill-rule="evenodd" class="a" d="m59 15.2q-0.1 0-0.2 0l-5.3-0.9c-0.6-0.1-1-0.7-0.9-1.3 0.1-0.6 0.7-1 1.3-0.9l5.3 1c0.6 0.1 1 0.7 0.9 1.2-0.1 0.6-0.6 0.9-1.1 0.9z"/></g></svg>